# xmcd
#
# Track frame offsets:
#	150
#	17277
#	34428
#	49238
#	63959
#	80637
#	96518
#	115014
#	133402
#	156089
#	173660
#	191885
#	208241
#	232276
#	248660
#	264710
#
# Disc length: 3729 seconds
#
# Revision: 0
# Processed by: cddbd v1.5.2PL0 Copyright (c) Steve Scherf et al.
# Submitted via: audiograbber 1.83.01
#
DISCID=ec0e8f10
DTITLE=JonesTM - HC200815
DYEAR=2008
DGENRE=Country
TTITLE0=Lonestar - Let Me Love You
TTITLE1=Randy Travis - Faith In You
TTITLE2=Neal McCoy - Rednecktified
TTITLE3=Rockie Lynne - I Can't Believe It's Me
TTITLE4=Alan Jackson - Good Time [Single Edit]
TTITLE5=Joshua Stevens - Rock 'N' Roll And Pensacola
TTITLE6=Ray Lavender - Stay [Main]
TTITLE7=Chris Brown - Take You Down
TTITLE8=Will Downing - Fantasy (Spending Time With You) [Album Version]
TTITLE9=Mario - Music For Love [Album Version]
TTITLE10=Boney James - The Way She Walks [Album Version]
TTITLE11=Wayman Tisdale - Throwin' It Down [Radio Edit]
TTITLE12=2unes - Going In Circles [Album Version]
TTITLE13=Bob Baldwin - Third Wind [Radio Edit]
TTITLE14=Les Sabler - Sweet Drive [Radio Edit]
TTITLE15=Earl Klugh - Driftin [Radio Edit]
EXTD=
EXTT0=
EXTT1=
EXTT2=
EXTT3=
EXTT4=
EXTT5=
EXTT6=
EXTT7=
EXTT8=
EXTT9=
EXTT10=
EXTT11=
EXTT12=
EXTT13=
EXTT14=
EXTT15=
PLAYORDER=
